<svg width="920" height="455" viewBox="0 0 920 455" fill="none" xmlns="http://www.w3.org/2000/svg" role="img" aria-labelledby="title desc">
  <title id="title">Live Language Snapshot</title>
  <desc id="desc">Aggregated GitHub repository language usage for ankitraj6767.</desc>
  <defs>
    <linearGradient id="card" x1="0" y1="0" x2="920" y2="455" gradientUnits="userSpaceOnUse">
      <stop stop-color="#020617"/>
      <stop offset="0.45" stop-color="#0F172A"/>
      <stop offset="1" stop-color="#111827"/>
    </linearGradient>
    <filter id="glow" x="-20%" y="-20%" width="140%" height="140%">
      <feGaussianBlur stdDeviation="18" result="blur"/>
      <feColorMatrix in="blur" type="matrix" values="0 0 0 0 0.23 0 0 0 0 0.51 0 0 0 0 0.96 0 0 0 .28 0"/>
      <feBlend in="SourceGraphic"/>
    </filter>
    <clipPath id="barClip"><rect x="36" y="108" width="848" height="22" rx="11"/></clipPath>
  </defs>
  <rect width="920" height="455" rx="24" fill="url(#card)"/>
  <rect x="1" y="1" width="918" height="453" rx="23" stroke="#334155"/>
  <circle cx="820" cy="78" r="120" fill="#2563EB" opacity="0.12" filter="url(#glow)"/>
  <circle cx="110" cy="370" r="110" fill="#7C3AED" opacity="0.10" filter="url(#glow)"/>

  <text x="36" y="52" fill="#F8FAFC" font-family="Inter, Segoe UI, Arial, sans-serif" font-size="26" font-weight="900">Live Language Snapshot</text>
  <text x="36" y="80" fill="#94A3B8" font-family="Inter, Segoe UI, Arial, sans-serif" font-size="14">GitHub Languages API • 11 repos counted • public repos only</text>

  <g clip-path="url(#barClip)">
    <rect x="36" y="108" width="848" height="22" fill="#1E293B"/>
    <rect x="36.00" y="108" width="416.41" height="22" fill="#3178C6"/> <rect x="452.41" y="108" width="182.31" height="22" fill="#F1E05A"/> <rect x="634.72" y="108" width="90.74" height="22" fill="#E34C26"/> <rect x="725.46" y="108" width="52.21" height="22" fill="#C6538C"/> <rect x="777.68" y="108" width="51.30" height="22" fill="#563D7C"/> <rect x="828.98" y="108" width="43.51" height="22" fill="#22D3EE"/> <rect x="872.49" y="108" width="9.05" height="22" fill="#336790"/> <rect x="881.54" y="108" width="2.46" height="22" fill="#89E051"/>
  </g>
  <rect x="36" y="108" width="848" height="22" rx="11" stroke="#475569" opacity="0.7"/>

  <circle cx="48" cy="165" r="6" fill="#3178C6"/><text x="64" y="170" fill="#E5E7EB" font-family="Inter, Segoe UI, Arial, sans-serif" font-size="15" font-weight="700">TypeScript</text><text x="253" y="170" fill="#94A3B8" font-family="Inter, Segoe UI, Arial, sans-serif" font-size="14">49.11% • 1.9 MB</text><circle cx="478" cy="165" r="6" fill="#F1E05A"/><text x="494" y="170" fill="#E5E7EB" font-family="Inter, Segoe UI, Arial, sans-serif" font-size="15" font-weight="700">JavaScript</text><text x="683" y="170" fill="#94A3B8" font-family="Inter, Segoe UI, Arial, sans-serif" font-size="14">21.50% • 833.6 KB</text><circle cx="48" cy="208" r="6" fill="#E34C26"/><text x="64" y="213" fill="#E5E7EB" font-family="Inter, Segoe UI, Arial, sans-serif" font-size="15" font-weight="700">HTML</text><text x="253" y="213" fill="#94A3B8" font-family="Inter, Segoe UI, Arial, sans-serif" font-size="14">10.70% • 414.9 KB</text><circle cx="478" cy="208" r="6" fill="#C6538C"/><text x="494" y="213" fill="#E5E7EB" font-family="Inter, Segoe UI, Arial, sans-serif" font-size="15" font-weight="700">SCSS</text><text x="683" y="213" fill="#94A3B8" font-family="Inter, Segoe UI, Arial, sans-serif" font-size="14">6.16% • 238.8 KB</text><circle cx="48" cy="251" r="6" fill="#563D7C"/><text x="64" y="256" fill="#E5E7EB" font-family="Inter, Segoe UI, Arial, sans-serif" font-size="15" font-weight="700">CSS</text><text x="253" y="256" fill="#94A3B8" font-family="Inter, Segoe UI, Arial, sans-serif" font-size="14">6.05% • 234.6 KB</text><circle cx="478" cy="251" r="6" fill="#22D3EE"/><text x="494" y="256" fill="#E5E7EB" font-family="Inter, Segoe UI, Arial, sans-serif" font-size="15" font-weight="700">Less</text><text x="683" y="256" fill="#94A3B8" font-family="Inter, Segoe UI, Arial, sans-serif" font-size="14">5.13% • 199.0 KB</text><circle cx="48" cy="294" r="6" fill="#336790"/><text x="64" y="299" fill="#E5E7EB" font-family="Inter, Segoe UI, Arial, sans-serif" font-size="15" font-weight="700">PLpgSQL</text><text x="253" y="299" fill="#94A3B8" font-family="Inter, Segoe UI, Arial, sans-serif" font-size="14">1.07% • 41.4 KB</text><circle cx="478" cy="294" r="6" fill="#89E051"/><text x="494" y="299" fill="#E5E7EB" font-family="Inter, Segoe UI, Arial, sans-serif" font-size="15" font-weight="700">Shell</text><text x="683" y="299" fill="#94A3B8" font-family="Inter, Segoe UI, Arial, sans-serif" font-size="14">0.29% • 11.2 KB</text><circle cx="48" cy="337" r="6" fill="#60A5FA"/><text x="64" y="342" fill="#E5E7EB" font-family="Inter, Segoe UI, Arial, sans-serif" font-size="15" font-weight="700">Procfile</text><text x="253" y="342" fill="#94A3B8" font-family="Inter, Segoe UI, Arial, sans-serif" font-size="14">0.00% • 54 B</text>

  <rect x="36" y="385" width="848" height="42" rx="14" fill="#0F172A" stroke="#1E293B"/>
  <text x="56" y="411" fill="#CBD5E1" font-family="Inter, Segoe UI, Arial, sans-serif" font-size="13">Updated: 2026-06-20 06:37:57 UTC</text>
  <text x="474" y="411" fill="#64748B" font-family="Inter, Segoe UI, Arial, sans-serif" font-size="13">Latest repository push: 2026-05-06T11:38:48Z</text>
</svg>